<?xml version="1.0" encoding="UTF-8"?>
<svg id="Layer_2" data-name="Layer 2" xmlns="http://www.w3.org/2000/svg" viewBox="0 0 408.78 408.78">
  <defs>
    <style>
      .cls-1 {
        fill: #414042;
        stroke-width: 0px;
      }
    </style>
  </defs>
  <path class="cls-1" d="M204.39,11.35c26.07,0,51.35,5.1,75.14,15.17,22.99,9.72,43.63,23.64,61.36,41.38,17.73,17.73,31.65,38.38,41.38,61.36,10.06,23.79,15.17,49.07,15.17,75.14s-5.1,51.35-15.17,75.14c-9.72,22.99-23.64,43.63-41.38,61.36-17.73,17.73-38.38,31.65-61.36,41.38-23.79,10.06-49.07,15.17-75.14,15.17s-51.35-5.1-75.14-15.17c-22.99-9.72-43.63-23.64-61.36-41.38-17.73-17.73-31.65-38.38-41.38-61.36-10.06-23.79-15.17-49.07-15.17-75.14s5.1-51.35,15.17-75.14c9.72-22.99,23.64-43.63,41.38-61.36,17.73-17.73,38.38-31.65,61.36-41.38,23.79-10.06,49.07-15.17,75.14-15.17M204.39,0C91.51,0,0,91.51,0,204.39s91.51,204.39,204.39,204.39,204.39-91.51,204.39-204.39S317.27,0,204.39,0h0Z"/>
  <path class="cls-1" d="M204.39,20.38c24.84,0,48.94,4.86,71.62,14.46,21.91,9.27,41.59,22.54,58.49,39.44,16.9,16.9,30.17,36.58,39.44,58.49,9.59,22.68,14.46,46.78,14.46,71.62s-4.86,48.94-14.46,71.62c-9.27,21.91-22.54,41.59-39.44,58.49-16.9,16.9-36.58,30.17-58.49,39.44-22.68,9.59-46.78,14.46-71.62,14.46s-48.94-4.86-71.62-14.46c-21.91-9.27-41.59-22.54-58.49-39.44-16.9-16.9-30.17-36.58-39.44-58.49-9.59-22.68-14.46-46.78-14.46-71.62s4.86-48.94,14.46-71.62c9.27-21.91,22.54-41.59,39.44-58.49,16.9-16.9,36.58-30.17,58.49-39.44,22.68-9.59,46.78-14.46,71.62-14.46M204.39,17.32C101.07,17.32,17.32,101.07,17.32,204.39s83.76,187.07,187.07,187.07,187.07-83.76,187.07-187.07S307.71,17.32,204.39,17.32h0Z"/>
  <g>
    <path class="cls-1" d="M212.69,29.55l1.64-4.36,1.14,4.51,4.6-.76-3.32,3.25,2.95,3.59-4.49-1.25-1.63,4.35-1.16-4.5-4.59.75,3.32-3.25-2.95-3.59,4.48,1.26Z"/>
    <path class="cls-1" d="M230.35,31.27l2.07-4.17.68,4.6,4.65-.29-3.63,2.9,2.57,3.87-4.34-1.69-2.06,4.16-.69-4.59-4.65.28,3.63-2.9-2.57-3.87,4.33,1.7Z"/>
    <path class="cls-1" d="M247.76,34.77l2.48-3.94.21,4.65,4.65.18-3.91,2.52,2.16,4.12-4.14-2.13-2.47,3.93-.22-4.64-4.65-.19,3.91-2.52-2.16-4.12,4.14,2.14Z"/>
    <path class="cls-1" d="M264.71,40.03l2.87-3.66-.26,4.64,4.61.66-4.14,2.1,1.73,4.31-3.9-2.54-2.86,3.66.25-4.64-4.61-.66,4.15-2.1-1.73-4.31,3.9,2.55Z"/>
    <path class="cls-1" d="M281.02,46.98l3.23-3.35-.73,4.59,4.52,1.12-4.34,1.67,1.28,4.47-3.62-2.92-3.22,3.35.72-4.59-4.52-1.13,4.34-1.67-1.28-4.47,3.62,2.93Z"/>
    <path class="cls-1" d="M296.55,55.56l3.55-3.01-1.2,4.49,4.38,1.57-4.48,1.22.82,4.57-3.31-3.27-3.54,3,1.18-4.49-4.38-1.58,4.48-1.22-.82-4.57,3.3,3.28Z"/>
    <path class="cls-1" d="M311.13,65.65l3.84-2.63-1.64,4.35,4.2,2.01-4.58.76.36,4.63-2.96-3.59-3.82,2.63,1.63-4.35-4.2-2.02,4.58-.76-.36-4.63,2.96,3.6Z"/>
    <path class="cls-1" d="M324.62,77.18l4.08-2.23-2.07,4.16,3.98,2.42-4.64.3-.11,4.65-2.58-3.87-4.07,2.23,2.06-4.16-3.97-2.43,4.64-.3.11-4.65,2.58,3.88Z"/>
    <path class="cls-1" d="M336.87,89.99l4.29-1.81-2.48,3.93,3.71,2.81-4.64-.17-.58,4.61-2.18-4.11-4.27,1.81,2.47-3.93-3.71-2.81,4.64.17.58-4.61,2.18,4.12Z"/>
    <path class="cls-1" d="M347.78,103.97l4.45-1.37-2.87,3.66,3.41,3.17-4.61-.64-1.04,4.53-1.76-4.31-4.43,1.37,2.85-3.67-3.41-3.17,4.6.64,1.04-4.53,1.75,4.32Z"/>
    <path class="cls-1" d="M357.22,119.01l4.56-.91-3.22,3.35,3.07,3.5-4.52-1.1-1.49,4.4-1.31-4.47-4.55.92,3.21-3.36-3.07-3.5,4.52,1.1,1.49-4.4,1.3,4.47Z"/>
    <path class="cls-1" d="M365.08,134.88l4.63-.44-3.55,3.01,2.7,3.79-4.38-1.55-1.93,4.23-.85-4.58-4.62.45,3.53-3.02-2.7-3.8,4.38,1.55,1.93-4.23.84,4.58Z"/>
    <path class="cls-1" d="M371.3,151.53l4.65.03-3.83,2.63,2.3,4.05-4.2-1.99-2.35,4.01-.38-4.64-4.64-.02,3.82-2.64-2.29-4.05,4.2,1.99,2.35-4.01.37,4.64Z"/>
    <path class="cls-1" d="M375.79,168.69l4.63.51-4.08,2.23,1.88,4.26-3.97-2.41-2.75,3.75.09-4.65-4.62-.5,4.07-2.24-1.87-4.26,3.97,2.41,2.75-3.75-.1,4.66Z"/>
    <path class="cls-1" d="M378.5,186.22l4.55.97-4.29,1.8,1.44,4.43-3.71-2.8-3.12,3.45.57-4.62-4.54-.96,4.28-1.81-1.43-4.43,3.71,2.8,3.12-3.45-.58,4.62Z"/>
    <path class="cls-1" d="M379.44,203.99l4.42,1.47-4.46,1.32.94,4.56-3.38-3.19-3.48,3.08,1.07-4.53-4.41-1.46,4.45-1.33-.93-4.56,3.38,3.19,3.48-3.08-1.08,4.53Z"/>
    <path class="cls-1" d="M378.59,221.65l4.27,1.86-4.56.91.53,4.63-3.08-3.48-3.74,2.76,1.47-4.42-4.26-1.85,4.55-.92-.52-4.63,3.08,3.48,3.74-2.76-1.48,4.42Z"/>
    <path class="cls-1" d="M375.97,239.19l4.06,2.28-4.63.45.05,4.66-2.71-3.78-4,2.37,1.91-4.24-4.05-2.27,4.62-.46-.04-4.65,2.71,3.78,4-2.37-1.92,4.24Z"/>
    <path class="cls-1" d="M371.59,256.36l3.8,2.68-4.65-.03-.42,4.64-2.31-4.03-4.22,1.95,2.34-4.03-3.8-2.67,4.64.02.43-4.63,2.31,4.03,4.22-1.95-2.34,4.02Z"/>
    <path class="cls-1" d="M365.46,273.02l3.51,3.06-4.62-.5-.89,4.57-1.89-4.25-4.4,1.51,2.73-3.77-3.5-3.04,4.62.49.9-4.57,1.89,4.25,4.4-1.51-2.74,3.76Z"/>
    <path class="cls-1" d="M357.68,288.96l3.18,3.4-4.55-.97-1.35,4.46-1.45-4.42-4.53,1.05,3.1-3.47-3.18-3.38,4.55.96,1.36-4.45,1.45,4.42,4.53-1.05-3.11,3.47Z"/>
    <path class="cls-1" d="M348.31,304.05l2.82,3.7-4.43-1.42-1.8,4.3-.99-4.54-4.61.59,3.44-3.14-2.82-3.69,4.42,1.41,1.8-4.29.99,4.54,4.61-.59-3.45,3.13Z"/>
    <path class="cls-1" d="M337.49,318.09l2.43,3.97-4.26-1.86-2.22,4.09-.53-4.62-4.65.12,3.74-2.77-2.43-3.95,4.26,1.85,2.23-4.09.53,4.62,4.65-.12-3.74,2.77Z"/>
    <path class="cls-1" d="M325.29,330.98l2.02,4.19-4.05-2.28-2.62,3.85-.06-4.65-4.63-.35,4-2.39-2.02-4.18,4.05,2.27,2.63-3.84.06,4.65,4.64.35-4,2.38Z"/>
    <path class="cls-1" d="M311.88,342.55l1.59,4.37-3.8-2.68-2.99,3.57.41-4.63-4.58-.81,4.22-1.97-1.59-4.36,3.8,2.67,3-3.56-.41,4.63,4.58.81-4.22,1.96Z"/>
    <path class="cls-1" d="M297.33,352.75l1.14,4.51-3.51-3.05-3.34,3.25.87-4.57-4.47-1.27,4.39-1.53-1.14-4.5,3.52,3.04,3.34-3.24-.87,4.57,4.47,1.27-4.4,1.53Z"/>
    <path class="cls-1" d="M281.87,361.4l.68,4.6-3.18-3.39-3.65,2.89,1.33-4.45-4.32-1.72,4.53-1.08-.68-4.59,3.19,3.38,3.66-2.88-1.33,4.45,4.32,1.72-4.53,1.07Z"/>
    <path class="cls-1" d="M265.57,368.44l.2,4.65-2.82-3.7-3.93,2.5,1.78-4.29-4.12-2.15,4.61-.62-.21-4.64,2.83,3.68,3.93-2.5-1.78,4.29,4.12,2.15-4.62.61Z"/>
    <path class="cls-1" d="M248.66,373.79l-.27,4.64-2.43-3.96-4.16,2.09,2.21-4.09-3.88-2.56,4.65-.14.26-4.63,2.44,3.95,4.16-2.08-2.21,4.09,3.88,2.56-4.66.13Z"/>
    <path class="cls-1" d="M231.3,377.38l-.74,4.59-2.02-4.19-4.35,1.66,2.61-3.85-3.6-2.94,4.64.33.73-4.58,2.02,4.18,4.35-1.65-2.61,3.85,3.6,2.94-4.64-.34Z"/>
    <path class="cls-1" d="M213.63,379.2l-1.2,4.5-1.58-4.37-4.5,1.21,2.98-3.56-3.29-3.29,4.59.8,1.19-4.49,1.59,4.36,4.5-1.2-2.98,3.56,3.29,3.29-4.59-.81Z"/>
    <path class="cls-1" d="M195.91,379.23l-1.64,4.35-1.14-4.51-4.6.76,3.32-3.25-2.94-3.6,4.48,1.25,1.63-4.35,1.15,4.5,4.59-.75-3.32,3.25,2.94,3.6-4.48-1.26Z"/>
    <path class="cls-1" d="M178.24,377.49l-2.07,4.17-.68-4.6-4.65.29,3.64-2.9-2.56-3.88,4.33,1.7,2.06-4.16.69,4.59,4.65-.28-3.64,2.9,2.57,3.88-4.33-1.71Z"/>
    <path class="cls-1" d="M160.86,373.98l-2.49,3.93-.21-4.65-4.65-.19,3.91-2.51-2.16-4.12,4.14,2.13,2.48-3.93.22,4.64,4.65.2-3.91,2.51,2.16,4.12-4.14-2.14Z"/>
    <path class="cls-1" d="M143.92,368.71l-2.88,3.66.27-4.64-4.61-.66,4.15-2.1-1.73-4.32,3.9,2.54,2.86-3.65-.26,4.64,4.61.67-4.15,2.1,1.73,4.32-3.9-2.55Z"/>
    <path class="cls-1" d="M127.61,361.74l-3.23,3.35.74-4.59-4.52-1.13,4.34-1.67-1.28-4.47,3.62,2.93,3.22-3.34-.73,4.59,4.51,1.13-4.34,1.67,1.28,4.47-3.62-2.93Z"/>
    <path class="cls-1" d="M112.08,353.15l-3.55,3,1.2-4.49-4.38-1.58,4.49-1.22-.82-4.58,3.31,3.28,3.54-3-1.19,4.49,4.38,1.59-4.49,1.22.82,4.58-3.3-3.28Z"/>
    <path class="cls-1" d="M97.52,343.04l-3.84,2.63,1.65-4.35-4.2-2.01,4.59-.76-.35-4.63,2.96,3.59,3.83-2.63-1.63,4.35,4.19,2.02-4.59.76.35,4.63-2.95-3.6Z"/>
    <path class="cls-1" d="M84.04,331.5l-4.08,2.23,2.08-4.16-3.98-2.42,4.64-.29.12-4.65,2.58,3.87,4.07-2.23-2.06,4.16,3.97,2.43-4.64.29-.12,4.65-2.58-3.88Z"/>
    <path class="cls-1" d="M71.79,318.67l-4.29,1.81,2.49-3.93-3.71-2.81,4.64.17.58-4.61,2.18,4.11,4.28-1.81-2.47,3.93,3.7,2.82-4.65-.17-.58,4.61-2.17-4.12Z"/>
    <path class="cls-1" d="M60.9,304.67l-4.45,1.36,2.87-3.66-3.41-3.17,4.6.64,1.04-4.53,1.75,4.31,4.44-1.37-2.86,3.66,3.4,3.18-4.6-.64-1.04,4.53-1.75-4.32Z"/>
    <path class="cls-1" d="M51.47,289.64l-4.56.91,3.22-3.35-3.07-3.5,4.52,1.1,1.5-4.4,1.31,4.47,4.55-.91-3.21,3.35,3.06,3.51-4.52-1.1-1.5,4.4-1.3-4.47Z"/>
    <path class="cls-1" d="M43.62,273.73l-4.63.44,3.55-3.01-2.7-3.8,4.38,1.56,1.94-4.22.85,4.58,4.62-.44-3.54,3.01,2.69,3.8-4.38-1.56-1.94,4.23-.84-4.58Z"/>
    <path class="cls-1" d="M37.43,257.1l-4.65-.04,3.84-2.63-2.3-4.05,4.2,2,2.36-4.01.38,4.64,4.64.03-3.82,2.63,2.29,4.05-4.2-2-2.36,4.01-.37-4.64Z"/>
    <path class="cls-1" d="M32.96,239.93l-4.63-.51,4.08-2.22-1.87-4.26,3.97,2.41,2.75-3.74-.1,4.65,4.61.5-4.07,2.23,1.86,4.27-3.97-2.41-2.75,3.74.11-4.66Z"/>
    <path class="cls-1" d="M30.26,222.39l-4.55-.98,4.29-1.8-1.43-4.43,3.71,2.8,3.12-3.45-.57,4.62,4.54.97-4.28,1.81,1.42,4.43-3.71-2.8-3.12,3.45.58-4.62Z"/>
    <path class="cls-1" d="M29.34,204.64l-4.42-1.47,4.46-1.32-.94-4.56,3.38,3.19,3.48-3.08-1.07,4.53,4.41,1.46-4.45,1.33.93,4.56-3.38-3.19-3.48,3.08,1.08-4.53Z"/>
    <path class="cls-1" d="M30.21,186.97l-4.26-1.86,4.56-.91-.52-4.63,3.08,3.49,3.74-2.76-1.48,4.41,4.26,1.85-4.55.92.51,4.63-3.08-3.49-3.74,2.76,1.49-4.41Z"/>
    <path class="cls-1" d="M32.84,169.43l-4.05-2.29,4.63-.44-.05-4.66,2.71,3.78,4-2.36-1.92,4.24,4.05,2.27-4.62.45.04,4.66-2.71-3.78-4,2.36,1.93-4.24Z"/>
    <path class="cls-1" d="M37.26,152.24l-3.8-2.69,4.65.03.43-4.64,2.31,4.04,4.22-1.94-2.34,4.02,3.79,2.67-4.64-.02-.43,4.63-2.31-4.04-4.22,1.94,2.35-4.02Z"/>
    <path class="cls-1" d="M43.39,135.6l-3.51-3.06,4.62.51.9-4.57,1.88,4.25,4.4-1.5-2.74,3.76,3.5,3.05-4.62-.49-.9,4.57-1.88-4.25-4.4,1.5,2.75-3.76Z"/>
    <path class="cls-1" d="M51.19,119.66l-3.18-3.4,4.55.97,1.36-4.46,1.44,4.42,4.53-1.05-3.11,3.47,3.17,3.39-4.54-.96-1.36,4.45-1.44-4.42-4.53,1.05,3.11-3.46Z"/>
    <path class="cls-1" d="M60.56,104.61l-2.82-3.7,4.43,1.43,1.8-4.29.99,4.54,4.61-.58-3.44,3.13,2.82,3.69-4.42-1.41-1.81,4.29-.99-4.54-4.61.58,3.45-3.13Z"/>
    <path class="cls-1" d="M71.4,90.58l-2.43-3.97,4.26,1.87,2.22-4.09.52,4.62,4.65-.12-3.74,2.77,2.43,3.96-4.26-1.85-2.23,4.09-.52-4.62-4.65.12,3.75-2.77Z"/>
    <path class="cls-1" d="M83.61,77.7l-2.02-4.19,4.05,2.29,2.62-3.85.06,4.65,4.63.35-4,2.38,2.02,4.18-4.05-2.27-2.63,3.84-.06-4.65-4.64-.35,4.01-2.38Z"/>
    <path class="cls-1" d="M97.05,66.12l-1.59-4.38,3.8,2.68,3-3.56-.41,4.63,4.58.82-4.22,1.97,1.59,4.36-3.8-2.67-3,3.56.41-4.63-4.58-.82,4.22-1.96Z"/>
    <path class="cls-1" d="M111.59,55.95l-1.14-4.51,3.51,3.05,3.34-3.24-.88,4.57,4.47,1.27-4.4,1.53,1.14,4.5-3.51-3.04-3.35,3.23.88-4.57-4.47-1.27,4.4-1.52Z"/>
    <path class="cls-1" d="M127.08,47.31l-.67-4.6,3.18,3.39,3.65-2.89-1.33,4.45,4.32,1.72-4.53,1.08.68,4.59-3.19-3.38-3.66,2.88,1.33-4.45-4.32-1.72,4.53-1.07Z"/>
    <path class="cls-1" d="M143.36,40.29l-.2-4.65,2.82,3.7,3.93-2.5-1.78,4.29,4.12,2.15-4.61.61.21,4.64-2.82-3.69-3.93,2.49,1.78-4.29-4.12-2.15,4.62-.6Z"/>
    <path class="cls-1" d="M160.28,34.96l.27-4.65,2.43,3.97,4.16-2.09-2.21,4.09,3.88,2.56-4.65.14-.27,4.63-2.43-3.96-4.17,2.08,2.21-4.09-3.88-2.56,4.66-.13Z"/>
    <path class="cls-1" d="M177.69,31.38l.75-4.59,2.01,4.19,4.35-1.65-2.61,3.84,3.6,2.94-4.64-.34-.74,4.58-2.02-4.18-4.36,1.64,2.61-3.84-3.6-2.94,4.64.35Z"/>
    <path class="cls-1" d="M195.32,29.58l1.21-4.49,1.58,4.37,4.5-1.21-2.99,3.56,3.28,3.29-4.58-.8-1.2,4.48-1.59-4.36-4.5,1.2,2.99-3.56-3.28-3.29,4.59.81Z"/>
  </g>
</svg>